# xmcd
#
# Track frame offsets:
#	150
#	16797
#	26247
#	34047
#	42972
#	69447
#	93297
#	112497
#	142497
#	177522
#	212922
#	243747
#	261672
#	299472
#	308397
#	322872
#	330822
#
# Disc length: 4778 seconds
#
# Revision: 0
# Processed by: cddbd v1.5.2PL0 Copyright (c) Steve Scherf et al.
# Submitted via: EasyCDDAExtractor 9.0.0.1
#
DISCID=0112a811
DTITLE=Wasp - Kulturbolaget Malmö 14-05-04 
DYEAR=2004
DGENRE=Hard Rock
TTITLE0=Overture
TTITLE1=On Your Knees
TTITLE2=Inside the Electric Circus
TTITLE3=Hellion
TTITLE4=Chainsaw Charlie (Murders In The New Morgue)
TTITLE5=LOVE Machine
TTITLE6=Animal (Fuck Like A Beast)
TTITLE7=Wild Child
TTITLE8=What I'll Never Find
TTITLE9=Sister Sadie (And The Black Habits)
TTITLE10=My Tortured Eyes
TTITLE11=The Real Me
TTITLE12=I Wanna Be Somebody
TTITLE13=The Titanic Overture 
TTITLE14=The Idol
TTITLE15=The Gypsy Meets The Boy
TTITLE16=Blind In Texas
EXTD=
EXTT0=
EXTT1=
EXTT2=
EXTT3=
EXTT4=
EXTT5=
EXTT6=
EXTT7=
EXTT8=
EXTT9=
EXTT10=
EXTT11=
EXTT12=
EXTT13=
EXTT14=
EXTT15=
EXTT16=
PLAYORDER=
